<svg width="100" height="50" viewBox="0 0 100 50" fill="none" xmlns="http://www.w3.org/2000/svg">
<rect width="100" height="50" fill="#F5F5F5"/>
<rect width="99.4" height="49.7" transform="translate(0.299999 0.150002)" fill="white"/>
<rect x="0.299999" y="0.150002" width="99.4" height="49.7" fill="#0F1111"/>
<g clip-path="url(#clip0_0_1)">
<path d="M27.3237 10.8C27.7887 11.1905 28.2537 11.581 28.7328 11.9833C28.7328 12.3738 28.7328 12.7643 28.7328 13.1667C29.13 12.7762 29.5271 12.3857 29.9364 11.9833C31.8078 10.6118 32.711 10.3614 34.8388 10.8C36.3889 12.3336 37.1082 13.1921 37.4538 15.6693C37.4415 16.3726 37.4292 17.076 37.4166 17.8006C37.409 18.5652 37.4014 19.3298 37.3936 20.1176C37.374 20.9192 37.3541 21.7208 37.334 22.5224C37.3222 23.3355 37.3115 24.1487 37.3019 24.9619C37.2742 26.9475 37.2356 28.9317 37.1872 30.9167C35.7922 30.9167 34.3973 30.9167 32.96 30.9167C32.9482 30.5106 32.9365 30.1046 32.9243 29.6862C32.87 27.8529 32.8123 26.0197 32.7545 24.1865C32.736 23.5473 32.7176 22.9082 32.6986 22.2497C32.6789 21.6395 32.6592 21.0294 32.6389 20.4007C32.6217 19.8368 32.6045 19.2729 32.5867 18.6919C32.5572 17.2957 32.5572 17.2957 32.0206 16.125C30.5562 16.5075 30.5562 16.5075 30.1418 17.9C30.0703 18.8855 30.0248 19.8741 29.9932 20.863C29.9736 21.4464 29.9539 22.0299 29.9336 22.631C29.9151 23.2419 29.8967 23.8529 29.8776 24.4823C29.8574 25.0978 29.8371 25.7133 29.8162 26.3474C29.7663 27.8704 29.7183 29.3935 29.6722 30.9167C28.2772 30.9167 26.8822 30.9167 25.4449 30.9167C25.2899 26.2307 25.1349 21.5447 24.9752 16.7167C24.3552 16.7167 23.7352 16.7167 23.0965 16.7167C22.5185 18.1729 22.5301 19.2359 22.4782 20.863C22.4585 21.4464 22.4388 22.0299 22.4185 22.631C22.4001 23.2419 22.3816 23.8529 22.3626 24.4823C22.3423 25.0978 22.322 25.7133 22.3011 26.3474C22.2512 27.8704 22.2033 29.3935 22.1571 30.9167C19.2674 30.9744 19.2674 30.9744 18.3995 30.9167C17.9298 30.325 17.9298 30.325 17.8765 28.5198C17.8766 27.7217 17.8793 26.9236 17.884 26.1256C17.8846 25.7062 17.8853 25.2867 17.886 24.8546C17.8886 23.5102 17.8945 22.1658 17.9005 20.8214C17.9028 19.9119 17.905 19.0024 17.9069 18.093C17.9121 15.8592 17.9202 13.6254 17.9298 11.3917C19.6521 11.3917 21.3743 11.3917 23.0965 11.3917C24.5143 10.4986 25.761 10.6964 27.3237 10.8Z" fill="#FEFEFE"/>
<path d="M13.3467 11.2946C14.1723 11.9833 14.1723 11.9833 15.1117 13.7583C15.2465 14.9355 15.2465 14.9355 15.2732 16.266C15.2871 16.7514 15.301 17.2369 15.3154 17.7371C15.3256 18.2423 15.3359 18.7476 15.3465 19.2682C15.415 22.5828 15.5183 25.4287 16.5208 28.55C15.464 29.7703 15.464 29.7703 14.1723 30.9167C13.0303 30.7934 12.3741 30.3757 11.3542 29.7333C10.8892 30.1238 10.4242 30.5143 9.94508 30.9167C7.70596 31.287 5.55024 31.4141 3.51617 30.1031C2.54001 27.6438 2.56057 25.3229 2.89969 22.6333C3.78855 20.5662 4.41855 19.8866 6.09947 18.8984C7.73561 18.4539 9.21548 18.4076 10.8845 18.4917C10.7295 17.5154 10.5745 16.5392 10.4148 15.5333C9.2799 15.3852 9.2799 15.3852 8.06631 15.5333C7.60131 16.412 7.60131 16.412 7.12693 17.3083C6.21323 17.4817 6.21323 17.4817 5.18944 17.4193C4.28852 17.3644 4.28852 17.3644 3.36939 17.3083C3.44506 14.8299 3.54812 13.553 4.92524 11.7245C7.30056 10.0282 10.8362 10.1156 13.3467 11.2946ZM7.59662 22.6333C7.21342 24.4433 7.21342 24.4433 7.12693 26.1833C8.05692 26.7691 8.05692 26.7691 9.00569 27.3667C10.0038 26.4065 10.0038 26.4065 10.8845 25C11.0416 23.1257 11.0416 23.1257 10.8845 21.45C9.38553 21.45 8.79299 21.5282 7.59662 22.6333Z" fill="#FEFEFE"/>
<path d="M48.9295 10.8C50.3732 11.8698 51.0104 12.4924 51.7477 14.35C51.8075 15.1715 51.8425 15.9961 51.8633 16.8207C51.8864 17.5557 51.8864 17.5557 51.9101 18.3056C51.9386 19.3348 51.9656 20.3641 51.9908 21.3934C52.0763 24.0156 52.1919 26.1633 53.1568 28.55C52.1 29.7703 52.1 29.7703 50.8083 30.9167C49.8396 30.7688 49.8396 30.7688 48.9295 30.325C47.1558 30.1486 47.1558 30.1486 46.1114 30.9167C44.0007 31.1992 42.088 31.3611 40.1815 30.1031C39.1629 27.6534 39.195 25.3353 39.5357 22.6333C40.4245 20.5662 41.0546 19.8866 42.7355 18.8984C44.3716 18.4539 45.8515 18.4076 47.5205 18.4917C47.3655 17.3202 47.2105 16.1487 47.0508 14.9417C46.1018 15.2978 45.1621 15.6949 44.2326 16.125C44.0776 16.5155 43.9226 16.906 43.7629 17.3083C42.5229 17.3083 41.2829 17.3083 40.0054 17.3083C40.0811 14.8299 40.1841 13.553 41.5612 11.7245C43.7946 10.1471 46.4673 10.3569 48.9295 10.8ZM43.7629 23.225C43.5667 24.7793 43.5667 24.7793 43.7629 26.1833C44.6929 26.7691 44.6929 26.7691 45.6417 27.3667C46.6398 26.4065 46.6398 26.4065 47.5205 25C47.6776 23.1257 47.6776 23.1257 47.5205 21.45C45.8017 21.45 45.1067 21.8982 43.7629 23.225Z" fill="#FEFEFE"/>
<path d="M90.7321 10.8C92.292 12.3257 93.0012 13.1888 93.3472 15.6693C93.3349 16.3726 93.3226 17.076 93.31 17.8006C93.3024 18.5652 93.2948 19.3298 93.287 20.1176C93.2674 20.9192 93.2475 21.7208 93.2274 22.5224C93.2156 23.3355 93.2049 24.1487 93.1953 24.9619C93.1676 26.9475 93.129 28.9317 93.0806 30.9167C90.1909 30.9744 90.1909 30.9744 89.3231 30.9167C88.5326 29.9209 88.7462 28.6564 88.7048 27.2904C88.6851 26.6783 88.6654 26.0663 88.6451 25.4357C88.6267 24.7916 88.6082 24.1475 88.5892 23.4839C88.5689 22.8375 88.5486 22.1911 88.5277 21.5251C88.4777 19.9224 88.4298 18.3196 88.3837 16.7167C87.7637 16.7167 87.1437 16.7167 86.5049 16.7167C85.9269 18.1729 85.9386 19.2358 85.8866 20.863C85.8669 21.4464 85.8473 22.0299 85.827 22.631C85.8085 23.2419 85.79 23.8529 85.771 24.4823C85.7507 25.0978 85.7305 25.7133 85.7096 26.3474C85.6596 27.8704 85.6117 29.3935 85.5655 30.9167C84.1705 30.9167 82.7756 30.9167 81.3383 30.9167C81.3383 24.4734 81.3383 18.0302 81.3383 11.3917C83.0605 11.3917 84.7827 11.3917 86.5049 11.3917C87.9791 10.4631 89.1063 10.5917 90.7321 10.8Z" fill="#FEFEFE"/>
<path d="M75.2323 10.8C77.5557 12.2092 78.5926 13.6705 79.4595 16.7167C80.1442 20.5904 80.1649 24.3474 78.4853 27.8174C77.2895 29.7798 76.2178 31.0008 74.2929 31.5083C72.1361 31.4652 70.6837 31.2775 68.9502 29.6224C66.6095 26.4633 66.5675 23.2415 66.6292 19.0718C66.9015 15.8406 67.7874 13.5761 69.6841 11.3917C71.576 10.5443 73.2486 10.4078 75.2323 10.8ZM72.4141 14.9417C70.9468 16.7901 71.017 18.1811 70.917 20.7844C70.9429 22.9687 71.2071 24.7708 71.9445 26.775C72.4094 26.9703 72.8744 27.1655 73.3535 27.3667C74.8793 26.3477 74.8793 26.3477 75.2323 24.4083C75.3002 23.2394 75.3359 22.0672 75.3497 20.8953C75.3618 20.2798 75.3739 19.6643 75.3864 19.0302C75.2137 17.1 74.9243 16.2865 73.8232 14.9417C73.3582 14.9417 72.8932 14.9417 72.4141 14.9417Z" fill="#FEFEFE"/>
<path d="M57.5895 10.7214C58.0097 10.7207 58.4299 10.7199 58.8628 10.7191C59.3048 10.7214 59.7468 10.7237 60.2022 10.726C60.8651 10.7226 60.8651 10.7226 61.5415 10.7191C62.1718 10.7203 62.1718 10.7203 62.8148 10.7214C63.2029 10.7221 63.591 10.7228 63.9909 10.7234C64.8991 10.8 64.8991 10.8 65.3688 11.3917C65.738 15.2341 64.8152 17.0465 63.0203 19.9339C62.7963 20.3102 62.5723 20.6866 62.3415 21.0744C61.7919 21.9952 61.2328 22.9069 60.6718 23.8167C60.9661 23.8884 61.2604 23.9601 61.5635 24.0339C61.9474 24.1331 62.3313 24.2322 62.7267 24.3344C63.2989 24.4785 63.2989 24.4785 63.8826 24.6256C64.8991 25 64.8991 25 65.8385 26.1833C65.8972 28.3281 65.8972 28.3281 65.8385 30.325C65.4025 30.2274 64.9666 30.1298 64.5174 30.0292C61.1815 29.4313 57.8734 29.5575 54.5658 30.325C54.0962 29.7333 54.0962 29.7333 54.0668 27.7734C54.4648 23.9294 56.5665 20.9549 58.3234 17.9C58.6334 17.3143 58.9434 16.7285 59.2628 16.125C57.8678 15.9298 56.4728 15.7345 55.0355 15.5333C55.0156 14.153 55.0163 12.772 55.0355 11.3917C55.7821 10.4513 56.5569 10.7232 57.5895 10.7214Z" fill="#FEFEFE"/>
<path fill-rule="evenodd" clip-rule="evenodd" d="M55.1218 32.2485C54.0925 32.886 54.618 33.2024 57.0824 33.4325C60.5978 33.7603 60.937 34.5225 59.5106 38.8988C58.9676 40.5659 59.0862 40.9839 59.9537 40.4595C61.5546 39.4922 64.0857 33.4095 63.3632 32.2658C62.6309 31.1067 56.9854 31.0952 55.1218 32.2485ZM10.9505 33.027C10.9603 34.1035 16.6754 37.688 22.2171 40.0933C28.8008 42.9501 40.1595 43.6097 47.2981 41.5495C52.7407 39.9792 59.5734 36.4053 58.7244 35.5741C58.4627 35.3182 55.0032 35.9892 51.0359 37.0639C39.1998 40.2716 26.1432 39.1998 15.4393 34.1428C11.0436 32.0654 10.9407 32.0405 10.9505 33.027Z" fill="#FF9900"/>
<path fill-rule="evenodd" clip-rule="evenodd" d="M56.0375 32.308C53.8798 32.9838 54.0426 33.0873 57.3913 33.1708L61.1958 33.2666L60.6527 36.8616L60.1096 40.4566L61.6418 37.4244C64.2612 32.2428 62.2134 30.3734 56.0375 32.308ZM13.3944 34.7852C20.8888 40.5573 33.468 43.6634 42.6368 42.0058C48.5225 40.9417 57.9981 37.3314 57.9981 36.1532C57.9981 35.762 55.461 36.2835 52.3613 37.3112C41.7711 40.8257 28.2126 39.915 15.355 34.8273C11.871 33.4488 11.6524 33.444 13.3944 34.7852Z" fill="#FF9900"/>
</g>
<defs>
<clipPath id="clip0_0_1">
<rect width="91.59" height="35.5" fill="white" transform="translate(2.43 10.8)"/>
</clipPath>
</defs>
</svg>
